<?xml version="1.0" standalone="no"?>
<!DOCTYPE svg PUBLIC "-//W3C//DTD SVG 20010904//EN"
 "http://www.w3.org/TR/2001/REC-SVG-20010904/DTD/svg10.dtd">
<svg version="1.0" xmlns="http://www.w3.org/2000/svg"
 width="450.000000pt" height="450.000000pt" viewBox="0 0 450.000000 450.000000"
 preserveAspectRatio="xMidYMid meet">
<metadata>
Created by potrace 1.14, written by Peter Selinger 2001-2017
</metadata>
<g transform="translate(0.000000,450.000000) scale(0.100000,-0.100000)"
fill="#000000" stroke="none">
<path d="M1359 4053 c-1 -10 -1 -395 0 -405 1 -5 32 -8 70 -8 l70 0 -1 48 c0
99 -5 92 65 92 l63 0 -1 -70 -1 -71 71 3 70 3 0 205 0 205 -71 3 -70 3 1 -53
c2 -84 1 -86 -66 -86 -66 0 -62 -6 -61 96 l1 42 -69 0 c-39 0 -70 -3 -71 -7z"/>
<path d="M1825 3993 l0 -68 60 -5 60 -5 0 -138 0 -137 73 0 72 0 0 140 0 140
60 0 60 0 0 70 0 70 -193 0 -193 0 1 -67z"/>
<path d="M2270 3850 l0 -210 70 0 70 0 0 102 0 101 41 -64 c23 -35 44 -68 49
-72 4 -5 28 24 54 64 36 57 46 67 47 48 0 -13 1 -58 2 -99 l2 -75 68 -3 67 -3
0 211 0 210 -74 0 -74 0 -41 -70 c-23 -38 -43 -70 -45 -70 -2 0 -22 32 -45 70
l-42 70 -74 0 -75 0 0 -210z"/>
<path d="M2810 3850 l0 -210 168 2 167 3 3 68 3 67 -43 1 c-24 0 -69 1 -100 0
l-58 0 0 140 0 139 -70 0 -70 0 0 -210z"/>
<path d="M1154 3423 c3 -16 7 -62 11 -103 13 -152 15 -176 21 -222 4 -36 2
-48 -8 -49 -7 0 -263 -2 -568 -3 -305 -2 -561 -4 -568 -4 -9 -2 -12 -12 -8
-34 2 -18 8 -69 11 -113 3 -44 8 -96 10 -115 2 -19 7 -66 10 -105 3 -38 8 -88
10 -110 2 -22 6 -71 10 -110 3 -38 7 -88 10 -110 2 -22 7 -76 11 -120 3 -44 8
-96 10 -115 2 -19 6 -71 9 -115 3 -44 8 -91 10 -105 2 -14 7 -68 11 -120 4
-52 8 -102 9 -110 2 -8 4 -23 4 -32 1 -16 31 -28 146 -59 51 -13 219 -59 235
-64 41 -12 167 -46 182 -50 18 -4 19 -3 283 70 94 26 177 49 185 51 8 2 40 10
70 18 30 8 55 14 56 13 1 -1 5 -38 8 -82 4 -44 10 -105 12 -135 8 -75 12 -131
13 -157 1 -24 13 -28 301 -108 91 -25 188 -52 215 -60 60 -17 173 -49 233 -65
29 -7 40 -15 35 -23 -4 -7 0 -7 10 2 9 7 17 9 17 4 0 -5 14 -10 32 -11 17 -2
36 -7 42 -11 15 -13 28 -14 35 -4 5 7 125 44 186 57 6 2 36 11 69 20 32 10 64
19 70 20 6 1 38 10 71 20 33 10 67 20 75 22 51 11 400 111 404 114 2 3 7 37
10 75 7 81 16 187 21 230 2 17 4 40 4 52 l1 21 68 -18 c135 -35 408 -111 452
-126 44 -13 51 -13 165 20 66 18 197 55 290 81 94 26 171 48 172 49 3 3 11 85
28 281 2 33 7 83 10 110 2 28 7 79 10 115 3 36 8 85 10 110 2 25 7 79 10 120
3 41 8 91 10 110 2 19 6 62 9 95 3 33 8 89 11 125 6 65 9 102 20 215 16 171
16 162 -3 167 -9 2 -268 3 -575 3 l-557 -1 4 46 c3 25 8 74 11 110 13 144 17
186 20 218 l4 32 -1100 0 -1099 0 4 -27z"/>
<path d="M330 3303 l0 -133 30 -1 c17 0 57 -1 90 -1 108 0 102 -2 98 40 l-3
37 -61 0 -62 -1 2 56 1 55 63 3 63 3 -3 37 -3 37 -107 1 -108 1 0 -134z"/>
<path d="M599 3428 c-7 -44 0 -61 41 -105 79 -85 79 -82 16 -79 -31 0 -56 -1
-57 -4 0 -3 -2 -20 -4 -37 -4 -38 -15 -35 135 -35 55 0 104 1 108 1 5 1 8 15
8 33 -1 24 -15 46 -58 92 l-58 61 52 3 c58 4 66 10 60 50 l-4 27 -119 1 c-65
0 -120 -3 -120 -8z"/>
<path d="M890 3405 c0 -25 12 -45 55 -91 30 -33 54 -62 55 -66 0 -4 -15 -7
-32 -6 -76 2 -78 1 -78 -39 l0 -38 117 2 c65 1 121 2 126 2 4 1 7 16 7 34 0
25 -12 45 -60 95 l-59 62 32 1 c18 1 43 0 57 0 23 -2 26 2 27 33 0 20 -4 37
-11 37 -6 1 -62 3 -123 4 l-113 2 0 -32z"/>
<path d="M3620 3348 l0 -88 -27 -1 c-16 -1 -44 -2 -63 -3 -34 -1 -35 -2 -36
-43 -2 -49 -14 -45 136 -46 l75 0 3 137 3 137 -46 -2 -45 -3 0 -88z"/>
<path d="M3764 3432 c-23 -17 -8 -62 36 -109 80 -85 80 -86 35 -83 -77 5 -81
3 -81 -35 0 -40 -12 -37 146 -38 l105 0 3 30 c3 26 -7 42 -59 97 -34 36 -57
66 -53 67 5 1 30 1 55 0 44 0 47 1 51 29 3 16 2 33 -1 38 -7 10 -223 14 -237
4z"/>
<path d="M2055 973 c3 -3 -5 -11 -17 -17 -13 -6 -24 -20 -25 -31 -3 -18 -1
-17 9 3 6 12 18 22 26 22 12 0 10 -5 -6 -20 -17 -16 -20 -25 -12 -39 5 -10 7
-21 4 -23 -6 -7 24 -32 43 -34 10 -2 11 1 4 10 -7 8 -6 17 1 26 8 12 9 12 4
-2 -5 -16 4 -23 27 -19 4 0 7 -5 7 -11 0 -10 2 -10 9 0 4 8 12 14 17 15 5 1 7
8 6 16 -2 7 1 10 7 6 6 -3 11 -1 11 4 0 6 5 11 11 11 8 0 7 -5 -1 -16 -11 -13
-10 -19 8 -37 18 -17 24 -19 34 -9 11 11 9 12 -7 6 -18 -7 -18 -6 -7 9 12 14
11 16 -8 12 -18 -4 -20 -2 -9 11 11 13 17 11 46 -18 26 -26 36 -29 46 -19 10
10 8 11 -8 6 -17 -6 -16 -3 5 15 23 20 23 20 3 10 -13 -6 -23 -7 -23 -2 0 6 9
12 21 15 14 4 18 10 13 19 -4 8 -3 10 2 5 5 -5 10 -21 10 -35 1 -15 2 -31 3
-37 1 -5 13 7 28 28 26 36 43 47 43 26 0 -5 -5 -7 -11 -3 -7 4 -10 1 -7 -7 3
-8 10 -13 16 -12 5 1 9 -5 8 -15 0 -11 5 -16 14 -13 8 2 24 3 35 3 15 -1 17 1
5 8 -8 5 -21 5 -31 0 -14 -8 -16 -4 -16 25 1 18 5 31 9 29 4 -3 8 0 8 5 0 6
-7 11 -15 11 -19 0 -19 14 -2 29 10 8 17 7 25 -1 9 -9 12 -9 12 0 0 9 5 10 19
3 10 -6 22 -7 26 -3 5 4 5 2 2 -5 -6 -10 11 -11 33 -3 3 1 8 2 13 1 4 0 7 3 7
9 0 5 -7 10 -15 10 -8 0 -15 -5 -15 -11 0 -5 -5 -7 -10 -4 -6 4 -7 12 -4 18 5
9 4 9 -6 0 -15 -14 -43 -5 -33 11 5 8 3 8 -8 0 -8 -6 -21 -11 -29 -11 -8 0
-22 -2 -30 -4 -8 -2 -14 1 -13 7 1 6 -5 11 -12 11 -10 0 -12 -4 -5 -12 5 -7 6
-16 2 -20 -4 -5 -1 -5 6 -1 6 4 12 2 12 -3 0 -6 -3 -11 -7 -11 -12 0 -35 16
-34 24 3 21 0 30 -7 20 -4 -6 -15 -10 -24 -9 -10 2 -15 -2 -12 -10 3 -7 0 -16
-7 -21 -8 -4 -10 -3 -5 4 4 7 2 13 -3 13 -19 2 -26 4 -36 9 -5 3 -28 5 -50 5
-33 0 -39 -3 -37 -18 4 -22 -25 -34 -48 -19 -14 8 -22 6 -41 -11 -19 -18 -22
-18 -16 -3 4 10 7 20 7 22 0 3 5 2 12 -2 7 -4 8 -3 4 4 -7 11 3 10 54 -4 22
-6 23 -5 13 8 -7 8 -11 17 -8 20 10 9 -30 5 -42 -5 -13 -9 -14 -8 -17 12 0 5
-4 12 -8 15 -5 3 -6 3 -3 -1z m60 -33 c3 -6 -1 -7 -9 -4 -18 7 -21 14 -7 14 6
0 13 -4 16 -10z m81 -3 c4 -4 14 -1 23 6 14 11 14 10 2 -5 -7 -10 -17 -16 -21
-13 -5 3 -10 2 -12 -3 -1 -4 -11 0 -20 10 -17 17 -17 18 2 15 11 -2 23 -6 26
-10z m124 -1 c-15 -15 -12 -24 6 -22 9 0 19 -5 21 -11 3 -7 0 -13 -7 -13 -6 0
-8 5 -5 11 4 6 1 10 -6 8 -32 -4 -42 1 -30 14 6 8 9 16 6 19 -3 2 2 5 10 5 11
0 12 -4 5 -11z m-66 -11 c-7 -16 -24 -21 -24 -6 0 8 7 13 27 20 1 1 0 -6 -3
-14z m-94 -25 c-24 -15 -36 -11 -14 4 10 8 21 12 24 10 2 -3 -2 -9 -10 -14z
m-70 0 c0 -5 -8 -10 -17 -10 -15 0 -16 2 -3 10 19 12 20 12 20 0z m130 0 c0
-5 -4 -10 -10 -10 -5 0 -10 5 -10 10 0 6 5 10 10 10 6 0 10 -4 10 -10z m48 -4
c-7 -8 -15 -12 -17 -11 -5 6 10 25 20 25 5 0 4 -6 -3 -14z m-135 -24 c14 -15
15 -19 2 -19 -8 0 -12 4 -9 8 2 4 -4 12 -13 18 -10 6 -13 11 -7 11 6 0 18 -8
27 -18z m116 -12 c11 -24 11 -24 -3 -6 -9 11 -16 24 -16 30 0 12 5 7 19 -24z
m-183 1 c0 -11 -4 -17 -8 -15 -4 3 -8 12 -8 20 0 8 4 14 8 14 4 0 8 -9 8 -19z
m268 10 c3 -5 -2 -15 -12 -22 -15 -12 -16 -12 -5 2 7 9 10 19 6 22 -3 4 -4 7
0 7 3 0 8 -4 11 -9z"/>
<path d="M1614 956 c5 -14 2 -17 -9 -12 -9 3 -13 2 -10 -4 3 -6 2 -10 -3 -10
-22 0 -19 -29 4 -45 13 -8 24 -12 23 -8 -3 21 2 27 12 13 9 -13 10 -12 5 2 -3
10 -1 20 4 23 10 6 15 -9 10 -30 -1 -5 2 -6 6 -2 4 4 14 -3 21 -15 13 -22 14
-22 8 -1 -5 18 -2 21 20 19 16 -2 25 2 25 11 0 8 5 11 10 8 17 -11 -8 -45 -28
-38 -9 3 -14 3 -11 -1 10 -11 50 -16 44 -5 -4 5 1 9 9 9 9 0 16 -4 16 -10 0
-5 5 -10 11 -10 5 0 8 4 5 9 -3 5 1 11 9 15 8 3 17 1 20 -4 4 -6 1 -10 -6 -10
-7 0 -9 -3 -6 -6 4 -4 13 -1 22 6 9 7 19 10 22 6 4 -4 3 -10 -2 -14 -6 -4 -11
-16 -13 -27 -1 -13 4 -8 16 13 10 18 21 30 25 26 4 -4 1 -14 -6 -23 -11 -14
-10 -14 6 -2 9 7 17 10 17 6 0 -4 7 -2 15 5 12 10 19 10 27 2 9 -9 8 -12 -5
-12 -9 0 -17 -5 -17 -10 0 -7 6 -7 18 -1 11 6 23 7 28 3 5 -4 6 -3 2 2 -4 6
-1 17 7 26 13 14 13 17 0 17 -8 0 -11 -5 -8 -10 3 -6 1 -7 -6 -3 -8 6 -9 12
-2 20 7 9 7 17 -2 26 -9 10 -9 11 1 6 6 -4 12 -4 13 1 0 4 2 16 4 26 2 9 -1
15 -6 11 -5 -3 -7 -10 -4 -15 8 -12 -24 -6 -54 10 -17 9 -21 10 -16 1 5 -9 2
-10 -13 -6 -13 5 -22 1 -26 -10 -5 -13 -9 -14 -21 -4 -8 7 -15 9 -16 4 0 -5
-4 0 -9 11 -7 17 -9 17 -9 3 -1 -10 -6 -18 -12 -18 -5 0 -7 5 -3 12 8 13 -11
3 -40 -21 -18 -15 -19 -15 -13 2 4 10 3 16 -2 12 -5 -3 -12 1 -15 7 -3 7 -4 4
-1 -7 2 -11 0 -27 -6 -35 -9 -13 -10 -12 -5 2 3 10 1 20 -4 23 -5 3 -7 14 -5
25 2 12 0 18 -6 15 -5 -4 -6 -11 -3 -17 5 -8 1 -9 -12 -5 -16 6 -15 4 3 -10
15 -12 20 -22 14 -32 -6 -9 -11 -10 -15 -2 -4 6 -4 11 1 11 4 0 0 5 -10 11
-15 9 -22 7 -33 -10 -14 -19 -50 -19 -38 0 3 5 11 6 17 3 7 -4 9 -4 5 1 -4 4
-1 13 7 19 11 8 12 15 4 26 -9 12 -10 12 -5 -4z m306 -26 c3 -1 8 -2 11 -2 3
1 5 -11 3 -26 -1 -14 3 -33 9 -42 11 -13 10 -13 -6 -1 -13 11 -21 11 -29 3 -9
-9 -15 -8 -26 1 -8 6 -27 13 -41 13 -14 1 -26 3 -26 4 0 1 -8 3 -17 5 -10 2
-18 -1 -18 -6 0 -4 -7 -6 -15 -2 -9 3 -13 8 -11 11 3 3 1 11 -5 18 -7 8 -6 14
2 19 6 4 15 2 19 -5 5 -8 10 -8 14 -2 7 11 24 11 42 -1 7 -4 17 -1 22 6 9 11
55 15 72 7z"/>
<path d="M1848 913 c-5 -7 -15 -10 -22 -6 -18 12 -35 12 -42 2 -3 -6 -12 -5
-22 3 -15 11 -15 11 -4 -4 7 -9 21 -15 30 -13 9 1 22 0 27 -3 6 -4 19 -6 31
-7 11 0 28 -6 36 -12 12 -11 18 -9 33 7 10 11 13 20 7 20 -7 0 -11 5 -9 12 3
17 -51 17 -65 1z m53 0 c-11 -5 -11 -7 0 -14 11 -7 11 -9 1 -9 -7 0 -10 -6 -7
-12 4 -7 -3 -2 -14 11 -12 13 -21 17 -21 10 0 -7 -3 -10 -6 -6 -11 11 4 22 33
23 15 1 22 -1 14 -3z"/>
<path d="M1835 959 c-4 -6 -5 -12 -2 -15 2 -3 7 2 10 11 7 17 1 20 -8 4z"/>
<path d="M2550 960 c-9 -6 -10 -10 -3 -10 6 0 15 5 18 10 8 12 4 12 -15 0z"/>
<path d="M2605 960 c-4 -6 -3 -9 2 -8 4 2 9 -1 11 -7 3 -13 -21 -14 -29 -2 -9
12 -31 -1 -24 -14 4 -5 -1 -9 -10 -9 -10 0 -13 5 -9 13 6 9 5 9 -8 0 -8 -7
-18 -10 -21 -6 -4 3 -7 1 -7 -6 0 -6 -7 -11 -16 -9 -10 2 -19 -3 -21 -9 -3 -7
0 -13 7 -13 6 0 8 5 4 12 -5 7 -3 8 6 3 10 -6 7 -12 -11 -26 -13 -10 -26 -14
-27 -8 -4 11 -22 2 -22 -11 0 -4 11 -7 25 -5 26 2 34 -9 13 -19 -7 -2 -3 -4 9
-2 11 1 28 7 35 14 8 6 18 9 21 5 4 -3 -1 -12 -11 -20 -16 -13 -15 -13 3 -6
11 5 36 8 57 8 29 -1 35 1 30 14 -3 9 -2 13 3 9 4 -4 17 -2 28 4 16 8 23 7 32
-6 11 -14 13 -13 25 9 15 29 25 32 34 10 3 -9 0 -15 -8 -15 -8 0 -17 -7 -20
-16 -5 -14 -4 -15 8 -5 8 7 20 10 25 7 6 -4 8 5 5 21 -4 27 -3 27 11 9 8 -11
15 -15 15 -9 0 7 -5 15 -10 18 -6 4 -7 11 -4 17 4 6 12 1 20 -13 7 -13 11 -26
9 -30 -2 -3 2 -6 10 -6 8 0 12 4 9 8 -2 4 -1 9 3 12 5 2 2 2 -5 0 -8 -1 -12 3
-10 9 6 16 30 18 40 4 4 -6 2 -16 -4 -24 -6 -7 7 -1 30 14 23 15 42 32 42 38
0 6 -4 4 -10 -4 -5 -8 -12 -11 -16 -7 -4 3 -1 15 7 24 12 16 12 17 -2 6 -19
-15 -33 -5 -18 13 7 9 6 14 -3 20 -7 4 -10 4 -6 -1 12 -13 -12 -34 -30 -28
-13 4 -12 2 3 -10 11 -8 23 -13 26 -11 4 2 9 -2 12 -10 3 -8 0 -17 -8 -20 -7
-2 -16 2 -19 10 -3 9 -10 12 -16 9 -5 -3 -10 -1 -10 5 0 7 -8 9 -22 4 -21 -6
-22 -6 -8 12 14 18 14 18 -4 4 -18 -14 -19 -13 -14 2 4 10 2 15 -7 14 -21 -3
-45 -27 -38 -39 3 -6 1 -7 -6 -3 -6 4 -9 17 -6 29 2 12 2 16 -1 10 -3 -7 -12
-13 -20 -13 -8 0 -14 -5 -14 -11 0 -5 -4 -8 -10 -4 -6 4 -6 15 0 31 7 17 7 23
0 19 -6 -3 -10 -12 -10 -20 0 -8 -5 -17 -12 -21 -7 -5 -9 -2 -5 9 7 19 -18 44
-28 27z m0 -37 c6 -1 18 -4 28 -6 10 -2 22 -9 26 -16 6 -10 10 -9 15 4 5 14 9
15 21 5 11 -9 12 -16 2 -30 -10 -17 -13 -18 -28 -4 -11 10 -18 11 -21 4 -2 -6
-12 -12 -21 -14 -10 -1 -22 -7 -25 -13 -10 -14 -44 -13 -63 4 -14 12 -18 11
-29 -2 -10 -12 -15 -13 -21 -3 -5 7 0 17 12 26 11 7 17 17 14 21 -2 5 6 7 18
7 27 -3 49 12 40 27 -4 6 -1 7 8 1 8 -4 19 -10 24 -11z m143 -21 c-9 -10 -13
-10 -19 0 -4 7 -3 18 3 26 9 10 13 10 19 0 4 -7 3 -18 -3 -26z"/>
<path d="M2570 905 c-6 -8 -17 -12 -24 -9 -7 3 -21 -6 -32 -18 -13 -15 -14
-19 -2 -10 11 9 18 10 23 2 3 -5 13 -10 21 -10 8 0 13 3 10 8 -2 4 2 16 10 27
8 11 14 13 14 6 0 -8 6 -11 16 -7 9 3 12 2 9 -5 -4 -6 -14 -8 -22 -5 -9 4 -11
2 -7 -6 4 -7 3 -8 -4 -4 -8 5 -10 2 -6 -8 5 -14 8 -14 21 -1 8 9 18 13 23 10
10 -6 35 23 26 32 -3 3 -6 0 -6 -8 0 -11 -2 -11 -8 -1 -12 18 -49 23 -62 7z
m-20 -25 c0 -5 -2 -10 -4 -10 -3 0 -8 5 -11 10 -3 6 -1 10 4 10 6 0 11 -4 11
-10z"/>
<path d="M2684 902 c3 -5 0 -13 -6 -15 -9 -4 -10 -6 -1 -6 17 -1 25 16 12 25
-7 4 -9 3 -5 -4z"/>
<path d="M2716 958 c3 -4 11 -5 19 -1 21 7 19 12 -4 10 -11 0 -18 -5 -15 -9z"/>
<path d="M2926 958 c3 -5 10 -6 15 -3 13 9 11 12 -6 12 -8 0 -12 -4 -9 -9z"/>
<path d="M1980 939 c-6 -11 -13 -29 -15 -40 -3 -16 -1 -18 16 -8 20 10 20 9 4
-20 -8 -17 -14 -31 -13 -32 32 -9 38 -7 26 8 -11 14 -10 15 8 9 15 -4 21 -2
21 9 0 10 -6 14 -15 10 -12 -4 -13 -3 -2 10 10 12 10 16 -2 20 -17 7 -20 37
-4 47 8 5 7 8 -1 8 -7 0 -17 -9 -23 -21z"/>
<path d="M2397 933 c-4 -3 1 -11 9 -18 13 -9 14 -16 5 -33 -7 -12 -7 -23 -2
-27 5 -3 12 4 16 15 5 14 12 19 24 15 14 -4 17 0 16 17 -1 15 -8 23 -21 23
-10 1 -24 4 -30 8 -6 3 -14 4 -17 0z m53 -17 c0 -3 -4 -8 -10 -11 -5 -3 -10
-1 -10 4 0 6 5 11 10 11 6 0 10 -2 10 -4z"/>
<path d="M2915 929 c-4 -6 -5 -12 -2 -15 2 -3 7 2 10 11 7 17 1 20 -8 4z"/>
<path d="M1467 920 c6 -8 9 -23 8 -32 -2 -10 0 -20 4 -23 14 -8 6 44 -9 57
-12 11 -12 10 -3 -2z"/>
<path d="M1550 919 c0 -5 5 -7 10 -4 6 3 10 8 10 11 0 2 -4 4 -10 4 -5 0 -10
-5 -10 -11z"/>
<path d="M2948 918 c5 -5 16 -8 23 -6 8 3 3 7 -10 11 -17 4 -21 3 -13 -5z"/>
<path d="M1525 902 c-3 -9 -3 -13 1 -9 12 11 33 -13 28 -31 -5 -15 -4 -15 6 0
8 14 6 22 -9 37 -17 17 -20 18 -26 3z"/>
<path d="M3004 903 c4 -4 16 -8 28 -10 28 -4 18 6 -12 12 -12 2 -20 1 -16 -2z"/>
<path d="M1415 880 c-3 -5 -1 -10 4 -10 6 0 11 5 11 10 0 6 -2 10 -4 10 -3 0
-8 -4 -11 -10z"/>
<path d="M1507 879 c7 -7 15 -10 18 -7 3 3 -2 9 -12 12 -14 6 -15 5 -6 -5z"/>
<path d="M2899 888 c-1 -2 -3 -13 -4 -25 -2 -21 -1 -21 20 -5 13 9 21 19 19
21 -2 2 -11 -2 -21 -10 -15 -12 -16 -12 -10 4 5 13 1 26 -4 15z"/>
<path d="M2975 869 c-4 -6 -5 -12 -2 -15 2 -3 7 2 10 11 7 17 1 20 -8 4z"/>
<path d="M1643 859 c9 -6 14 -15 11 -21 -4 -7 -2 -8 4 -4 16 9 3 36 -17 36
-14 -1 -14 -2 2 -11z"/>
<path d="M2356 847 c3 -10 9 -15 12 -12 3 3 0 11 -7 18 -10 9 -11 8 -5 -6z"/>
<path d="M2028 833 c6 -2 10 -8 8 -12 -3 -4 1 -8 9 -8 11 0 12 4 4 14 -6 7
-17 13 -23 12 -7 0 -6 -2 2 -6z"/>
<path d="M1933 795 c0 -8 4 -12 9 -9 5 3 6 10 3 15 -9 13 -12 11 -12 -6z"/>
<path d="M2153 795 c0 -8 4 -12 9 -9 5 3 6 10 3 15 -9 13 -12 11 -12 -6z"/>
<path d="M2315 800 c-3 -5 -1 -10 4 -10 6 0 11 5 11 10 0 6 -2 10 -4 10 -3 0
-8 -4 -11 -10z"/>
<path d="M2575 800 c-3 -5 -1 -10 4 -10 6 0 11 5 11 10 0 6 -2 10 -4 10 -3 0
-8 -4 -11 -10z"/>
<path d="M2650 800 c0 -5 5 -10 11 -10 5 0 7 5 4 10 -3 6 -8 10 -11 10 -2 0
-4 -4 -4 -10z"/>
<path d="M2467 739 c7 -7 15 -10 18 -7 3 3 -2 9 -12 12 -14 6 -15 5 -6 -5z"/>
</g>
</svg>
